<svg width="1022" height="1353" viewBox="0 0 1022 1353" fill="none" xmlns="http://www.w3.org/2000/svg">
<g filter="url(#filter0_df_1420_1427)">
<path d="M12.9048 160.21L15.3099 167.917L21.8096 170.769L15.3099 173.621L12.9048 181.328L10.4997 173.621L4 170.769L10.4997 167.917L12.9048 160.21Z" fill="white"/>
</g>
<g filter="url(#filter1_df_1420_1427)">
<path d="M87.4829 251.28L89.8881 258.987L96.3878 261.838L89.8881 264.69L87.4829 272.397L85.0778 264.69L78.5781 261.838L85.0778 258.987L87.4829 251.28Z" fill="white"/>
</g>
<g filter="url(#filter2_df_1420_1427)">
<path d="M118.65 24.2654L121.055 31.9723L127.555 34.8242L121.055 37.676L118.65 45.383L116.245 37.676L109.745 34.8242L116.245 31.9723L118.65 24.2654Z" fill="white"/>
</g>
<g filter="url(#filter3_df_1420_1427)">
<path d="M194.34 202.445L196.745 210.152L203.245 213.004L196.745 215.856L194.34 223.563L191.935 215.856L185.436 213.004L191.935 210.152L194.34 202.445Z" fill="white"/>
</g>
<g filter="url(#filter4_df_1420_1427)">
<path d="M241.091 392.503L243.496 400.21L249.996 403.062L243.496 405.914L241.091 413.621L238.686 405.914L232.186 403.062L238.686 400.21L241.091 392.503Z" fill="white"/>
</g>
<g filter="url(#filter5_df_1420_1427)">
<path d="M50.867 444.306L53.2721 452.013L59.7718 454.865L53.2721 457.717L50.867 465.424L48.4619 457.717L41.9622 454.865L48.4619 452.013L50.867 444.306Z" fill="white"/>
</g>
<g filter="url(#filter6_df_1420_1427)">
<path d="M683.525 112.123L686.806 121.894L695.673 125.51L686.806 129.126L683.525 138.898L680.244 129.126L671.377 125.51L680.244 121.894L683.525 112.123Z" fill="white"/>
</g>
<g filter="url(#filter7_df_1420_1427)">
<path d="M784.505 325.49L787.786 335.262L796.653 338.878L787.786 342.493L784.505 352.265L781.224 342.493L772.357 338.878L781.224 335.262L784.505 325.49Z" fill="white"/>
</g>
<g filter="url(#filter8_df_1420_1427)">
<path d="M827.023 37.6531L830.304 47.4249L839.171 51.0408L830.304 54.6567L827.023 64.4286L823.742 54.6567L814.875 51.0408L823.742 47.4249L827.023 37.6531Z" fill="white"/>
</g>
<g filter="url(#filter9_df_1420_1427)">
<path d="M930.28 263.572L933.561 273.343L942.428 276.959L933.561 280.575L930.28 290.347L926.999 280.575L918.132 276.959L926.999 273.343L930.28 263.572Z" fill="white"/>
</g>
<g filter="url(#filter10_f_1420_1427)">
<path d="M994.057 504.551L997.338 514.323L1006.2 517.939L997.338 521.555L994.057 531.327L990.776 521.555L981.909 517.939L990.776 514.323L994.057 504.551Z" fill="white"/>
</g>
<g filter="url(#filter11_df_1420_1427)">
<path d="M682.766 444.306L686.047 454.078L694.914 457.694L686.047 461.31L682.766 471.082L679.485 461.31L670.618 457.694L679.485 454.078L682.766 444.306Z" fill="white"/>
</g>
<g filter="url(#filter12_df_1420_1427)">
<path d="M827.023 471.082L830.304 480.853L839.171 484.469L830.304 488.085L827.023 497.857L823.742 488.085L814.875 484.469L823.742 480.853L827.023 471.082Z" fill="white"/>
</g>
<g filter="url(#filter13_df_1420_1427)">
<path d="M337.309 349.755L340.59 359.527L349.457 363.143L340.59 366.759L337.309 376.531L334.028 366.759L325.161 363.143L334.028 359.527L337.309 349.755Z" fill="white"/>
</g>
<g filter="url(#filter14_df_1420_1427)">
<path d="M439.048 465.225L442.329 474.996L451.196 478.612L442.329 482.228L439.048 492L435.767 482.228L426.9 478.612L435.767 474.996L439.048 465.225Z" fill="white"/>
</g>
<g filter="url(#filter15_df_1420_1427)">
<path d="M481.566 177.388L484.847 187.16L493.714 190.775L484.847 194.391L481.566 204.163L478.285 194.391L469.418 190.775L478.285 187.16L481.566 177.388Z" fill="white"/>
</g>
<g filter="url(#filter16_df_1420_1427)">
<path d="M584.823 403.306L588.104 413.078L596.971 416.694L588.104 420.31L584.823 430.082L581.542 420.31L572.675 416.694L581.542 413.078L584.823 403.306Z" fill="white"/>
</g>
<g filter="url(#filter17_df_1420_1427)">
<path d="M648.6 644.286L651.881 654.057L660.748 657.673L651.881 661.289L648.6 671.061L645.319 661.289L636.452 657.673L645.319 654.057L648.6 644.286Z" fill="white"/>
</g>
<g filter="url(#filter18_df_1420_1427)">
<path d="M337.309 584.041L340.59 593.813L349.457 597.429L340.59 601.044L337.309 610.816L334.028 601.044L325.161 597.429L334.028 593.813L337.309 584.041Z" fill="white"/>
</g>
<g filter="url(#filter19_df_1420_1427)">
<path d="M481.566 610.816L484.847 620.588L493.714 624.204L484.847 627.82L481.566 637.592L478.285 627.82L469.418 624.204L478.285 620.588L481.566 610.816Z" fill="white"/>
</g>
<g filter="url(#filter20_df_1420_1427)">
<path d="M24.4995 928.776L27.7805 938.547L36.6474 942.163L27.7805 945.779L24.4995 955.551L21.2185 945.779L12.3516 942.163L21.2185 938.547L24.4995 928.776Z" fill="white"/>
</g>
<g filter="url(#filter21_df_1420_1427)">
<path d="M126.239 1044.24L129.52 1054.02L138.386 1057.63L129.52 1061.25L126.239 1071.02L122.957 1061.25L114.091 1057.63L122.957 1054.02L126.239 1044.24Z" fill="white"/>
</g>
<g filter="url(#filter22_df_1420_1427)">
<path d="M168.756 756.408L172.037 766.18L180.904 769.796L172.037 773.412L168.756 783.184L165.475 773.412L156.608 769.796L165.475 766.18L168.756 756.408Z" fill="white"/>
</g>
<g filter="url(#filter23_df_1420_1427)">
<path d="M272.014 982.327L275.295 992.098L284.162 995.714L275.295 999.33L272.014 1009.1L268.733 999.33L259.866 995.714L268.733 992.098L272.014 982.327Z" fill="white"/>
</g>
<g filter="url(#filter24_df_1420_1427)">
<path d="M335.791 1223.31L339.072 1233.08L347.938 1236.69L339.072 1240.31L335.791 1250.08L332.509 1240.31L323.643 1236.69L332.509 1233.08L335.791 1223.31Z" fill="white"/>
</g>
<g filter="url(#filter25_df_1420_1427)">
<path d="M24.4995 1163.06L27.7805 1172.83L36.6474 1176.45L27.7805 1180.06L24.4995 1189.84L21.2185 1180.06L12.3516 1176.45L21.2185 1172.83L24.4995 1163.06Z" fill="white"/>
</g>
<g filter="url(#filter26_df_1420_1427)">
<path d="M180.904 1291.92L184.185 1301.69L193.052 1305.31L184.185 1308.92L180.904 1318.69L177.623 1308.92L168.756 1305.31L177.623 1301.69L180.904 1291.92Z" fill="white"/>
</g>
<g filter="url(#filter27_df_1420_1427)">
<path d="M168.756 1189.84L172.037 1199.61L180.904 1203.22L172.037 1206.84L168.756 1216.61L165.475 1206.84L156.608 1203.22L165.475 1199.61L168.756 1189.84Z" fill="white"/>
</g>
<ellipse cx="91.0038" cy="195.796" rx="2.90082" ry="3.34694" fill="#C8C8C8"/>
<ellipse cx="363.681" cy="369.836" rx="2.90082" ry="3.34694" fill="#C8C8C8"/>
<ellipse cx="566.737" cy="83.6734" rx="2.90082" ry="3.34694" fill="#C8C8C8"/>
<ellipse cx="38.7892" cy="612.49" rx="2.90082" ry="3.34694" fill="#C8C8C8"/>
<ellipse cx="549.332" cy="753.062" rx="2.90082" ry="3.34694" fill="#C8C8C8"/>
<ellipse cx="301.313" cy="612.49" rx="2.90082" ry="3.34694" fill="#C8C8C8"/>
<ellipse cx="295.511" cy="103.755" rx="2.90082" ry="3.34694" fill="#C8C8C8"/>
<ellipse cx="421.697" cy="870.205" rx="2.90082" ry="3.34694" fill="#C8C8C8"/>
<ellipse cx="76.4997" cy="927.939" rx="2.90082" ry="3.34694" fill="#C8C8C8"/>
<ellipse cx="160.623" cy="424.224" rx="2.90082" ry="3.34694" fill="#C8C8C8"/>
<ellipse cx="468.11" cy="526.307" rx="2.90082" ry="3.34694" fill="#C8C8C8"/>
<ellipse cx="436.201" cy="255.204" rx="2.90082" ry="3.34694" fill="#C8C8C8"/>
<path d="M466.654 215.878C394.799 217.551 231.916 -14.623 126.512 75.7244C112.845 87.4387 123.961 80.3265 123.961 80.3265C123.961 80.3265 53.2278 206.488 58.6658 294.53C63.198 367.908 108.516 397.021 123.961 468.571C146.605 573.477 139.53 638.236 123.961 744.694C109.815 841.419 38.9585 887.765 55.6288 984C71.4871 1075.55 111.956 1131.73 187.738 1173.1C252.742 1208.59 303.252 1166.16 372.994 1188.16C429.859 1206.1 450.629 1255.96 509.658 1260.12C571.045 1264.45 597.57 1193.68 658.47 1203.22C698.124 1209.44 712.267 1240.93 751.098 1251.76C836.675 1275.61 912.139 1273.9 972.798 1203.22C1034.06 1131.85 1030.53 1047.38 1003.17 953.878C974.464 855.8 882.286 855.105 834.615 766.449C803.121 707.878 757.247 668.665 776.913 604.123C793.717 548.97 850.881 558.078 883.207 512.082C964.545 396.345 892.318 419.622 883.207 238.888C874.096 58.153 538.509 214.204 466.654 215.878Z" fill="url(#paint0_radial_1420_1427)" fill-opacity="0.14"/>
<ellipse cx="578.844" cy="115.469" rx="2.56246" ry="3.34694" fill="#C8C8C8"/>
<ellipse cx="819.715" cy="289.51" rx="2.56246" ry="3.34694" fill="#C8C8C8"/>
<ellipse cx="999.087" cy="3.34694" rx="2.56246" ry="3.34694" fill="#C8C8C8"/>
<ellipse cx="532.72" cy="532.163" rx="2.56246" ry="3.34694" fill="#C8C8C8"/>
<ellipse cx="983.712" cy="672.735" rx="2.56246" ry="3.34694" fill="#C8C8C8"/>
<ellipse cx="764.622" cy="532.163" rx="2.56246" ry="3.34694" fill="#C8C8C8"/>
<ellipse cx="759.497" cy="23.4285" rx="2.56246" ry="3.34694" fill="#C8C8C8"/>
<ellipse cx="870.964" cy="789.878" rx="2.56246" ry="3.34694" fill="#C8C8C8"/>
<ellipse cx="566.032" cy="847.612" rx="2.56246" ry="3.34694" fill="#C8C8C8"/>
<ellipse cx="640.343" cy="343.898" rx="2.56246" ry="3.34694" fill="#C8C8C8"/>
<ellipse cx="911.963" cy="445.979" rx="2.56246" ry="3.34694" fill="#C8C8C8"/>
<ellipse cx="883.776" cy="174.877" rx="2.56246" ry="3.34694" fill="#C8C8C8"/>
<ellipse cx="122.55" cy="617.51" rx="2.96271" ry="3.34694" fill="white"/>
<ellipse cx="401.044" cy="791.551" rx="2.96271" ry="3.34694" fill="white"/>
<ellipse cx="608.434" cy="505.388" rx="2.96271" ry="3.34694" fill="white"/>
<ellipse cx="69.221" cy="1034.2" rx="2.96271" ry="3.34694" fill="white"/>
<ellipse cx="590.658" cy="1174.78" rx="2.96271" ry="3.34694" fill="white"/>
<ellipse cx="337.346" cy="1034.2" rx="2.96271" ry="3.34694" fill="white"/>
<ellipse cx="331.42" cy="525.469" rx="2.96271" ry="3.34694" fill="white"/>
<ellipse cx="460.299" cy="1291.92" rx="2.96271" ry="3.34694" fill="white"/>
<ellipse cx="107.736" cy="1349.65" rx="2.96271" ry="3.34694" fill="white"/>
<ellipse cx="193.655" cy="845.939" rx="2.96271" ry="3.34694" fill="white"/>
<ellipse cx="507.702" cy="948.02" rx="2.96271" ry="3.34694" fill="white"/>
<ellipse cx="475.112" cy="676.918" rx="2.96271" ry="3.34694" fill="white"/>
<defs>
<filter id="filter0_df_1420_1427" x="0" y="157.21" width="25.8096" height="32.1177" filterUnits="userSpaceOnUse" color-interpolation-filters="sRGB">
<feFlood flood-opacity="0" result="BackgroundImageFix"/>
<feColorMatrix in="SourceAlpha" type="matrix" values="0 0 0 0 0 0 0 0 0 0 0 0 0 0 0 0 0 0 127 0" result="hardAlpha"/>
<feOffset dy="4"/>
<feGaussianBlur stdDeviation="2"/>
<feComposite in2="hardAlpha" operator="out"/>
<feColorMatrix type="matrix" values="0 0 0 0 0 0 0 0 0 0 0 0 0 0 0 0 0 0 0.25 0"/>
<feBlend mode="normal" in2="BackgroundImageFix" result="effect1_dropShadow_1420_1427"/>
<feBlend mode="normal" in="SourceGraphic" in2="effect1_dropShadow_1420_1427" result="shape"/>
<feGaussianBlur stdDeviation="1.5" result="effect2_foregroundBlur_1420_1427"/>
</filter>
<filter id="filter1_df_1420_1427" x="74.5781" y="248.28" width="25.8096" height="32.1177" filterUnits="userSpaceOnUse" color-interpolation-filters="sRGB">
<feFlood flood-opacity="0" result="BackgroundImageFix"/>
<feColorMatrix in="SourceAlpha" type="matrix" values="0 0 0 0 0 0 0 0 0 0 0 0 0 0 0 0 0 0 127 0" result="hardAlpha"/>
<feOffset dy="4"/>
<feGaussianBlur stdDeviation="2"/>
<feComposite in2="hardAlpha" operator="out"/>
<feColorMatrix type="matrix" values="0 0 0 0 0 0 0 0 0 0 0 0 0 0 0 0 0 0 0.25 0"/>
<feBlend mode="normal" in2="BackgroundImageFix" result="effect1_dropShadow_1420_1427"/>
<feBlend mode="normal" in="SourceGraphic" in2="effect1_dropShadow_1420_1427" result="shape"/>
<feGaussianBlur stdDeviation="1.5" result="effect2_foregroundBlur_1420_1427"/>
</filter>
<filter id="filter2_df_1420_1427" x="105.745" y="21.2654" width="25.8096" height="32.1177" filterUnits="userSpaceOnUse" color-interpolation-filters="sRGB">
<feFlood flood-opacity="0" result="BackgroundImageFix"/>
<feColorMatrix in="SourceAlpha" type="matrix" values="0 0 0 0 0 0 0 0 0 0 0 0 0 0 0 0 0 0 127 0" result="hardAlpha"/>
<feOffset dy="4"/>
<feGaussianBlur stdDeviation="2"/>
<feComposite in2="hardAlpha" operator="out"/>
<feColorMatrix type="matrix" values="0 0 0 0 0 0 0 0 0 0 0 0 0 0 0 0 0 0 0.25 0"/>
<feBlend mode="normal" in2="BackgroundImageFix" result="effect1_dropShadow_1420_1427"/>
<feBlend mode="normal" in="SourceGraphic" in2="effect1_dropShadow_1420_1427" result="shape"/>
<feGaussianBlur stdDeviation="1.5" result="effect2_foregroundBlur_1420_1427"/>
</filter>
<filter id="filter3_df_1420_1427" x="181.436" y="199.445" width="25.8096" height="32.1177" filterUnits="userSpaceOnUse" color-interpolation-filters="sRGB">
<feFlood flood-opacity="0" result="BackgroundImageFix"/>
<feColorMatrix in="SourceAlpha" type="matrix" values="0 0 0 0 0 0 0 0 0 0 0 0 0 0 0 0 0 0 127 0" result="hardAlpha"/>
<feOffset dy="4"/>
<feGaussianBlur stdDeviation="2"/>
<feComposite in2="hardAlpha" operator="out"/>
<feColorMatrix type="matrix" values="0 0 0 0 0 0 0 0 0 0 0 0 0 0 0 0 0 0 0.25 0"/>
<feBlend mode="normal" in2="BackgroundImageFix" result="effect1_dropShadow_1420_1427"/>
<feBlend mode="normal" in="SourceGraphic" in2="effect1_dropShadow_1420_1427" result="shape"/>
<feGaussianBlur stdDeviation="1.5" result="effect2_foregroundBlur_1420_1427"/>
</filter>
<filter id="filter4_df_1420_1427" x="228.186" y="389.503" width="25.8096" height="32.1177" filterUnits="userSpaceOnUse" color-interpolation-filters="sRGB">
<feFlood flood-opacity="0" result="BackgroundImageFix"/>
<feColorMatrix in="SourceAlpha" type="matrix" values="0 0 0 0 0 0 0 0 0 0 0 0 0 0 0 0 0 0 127 0" result="hardAlpha"/>
<feOffset dy="4"/>
<feGaussianBlur stdDeviation="2"/>
<feComposite in2="hardAlpha" operator="out"/>
<feColorMatrix type="matrix" values="0 0 0 0 0 0 0 0 0 0 0 0 0 0 0 0 0 0 0.25 0"/>
<feBlend mode="normal" in2="BackgroundImageFix" result="effect1_dropShadow_1420_1427"/>
<feBlend mode="normal" in="SourceGraphic" in2="effect1_dropShadow_1420_1427" result="shape"/>
<feGaussianBlur stdDeviation="1.5" result="effect2_foregroundBlur_1420_1427"/>
</filter>
<filter id="filter5_df_1420_1427" x="37.9622" y="441.306" width="25.8096" height="32.1177" filterUnits="userSpaceOnUse" color-interpolation-filters="sRGB">
<feFlood flood-opacity="0" result="BackgroundImageFix"/>
<feColorMatrix in="SourceAlpha" type="matrix" values="0 0 0 0 0 0 0 0 0 0 0 0 0 0 0 0 0 0 127 0" result="hardAlpha"/>
<feOffset dy="4"/>
<feGaussianBlur stdDeviation="2"/>
<feComposite in2="hardAlpha" operator="out"/>
<feColorMatrix type="matrix" values="0 0 0 0 0 0 0 0 0 0 0 0 0 0 0 0 0 0 0.25 0"/>
<feBlend mode="normal" in2="BackgroundImageFix" result="effect1_dropShadow_1420_1427"/>
<feBlend mode="normal" in="SourceGraphic" in2="effect1_dropShadow_1420_1427" result="shape"/>
<feGaussianBlur stdDeviation="1.5" result="effect2_foregroundBlur_1420_1427"/>
</filter>
<filter id="filter6_df_1420_1427" x="667.377" y="109.123" width="32.2959" height="37.7754" filterUnits="userSpaceOnUse" color-interpolation-filters="sRGB">
<feFlood flood-opacity="0" result="BackgroundImageFix"/>
<feColorMatrix in="SourceAlpha" type="matrix" values="0 0 0 0 0 0 0 0 0 0 0 0 0 0 0 0 0 0 127 0" result="hardAlpha"/>
<feOffset dy="4"/>
<feGaussianBlur stdDeviation="2"/>
<feComposite in2="hardAlpha" operator="out"/>
<feColorMatrix type="matrix" values="0 0 0 0 0 0 0 0 0 0 0 0 0 0 0 0 0 0 0.25 0"/>
<feBlend mode="normal" in2="BackgroundImageFix" result="effect1_dropShadow_1420_1427"/>
<feBlend mode="normal" in="SourceGraphic" in2="effect1_dropShadow_1420_1427" result="shape"/>
<feGaussianBlur stdDeviation="1.5" result="effect2_foregroundBlur_1420_1427"/>
</filter>
<filter id="filter7_df_1420_1427" x="768.357" y="322.49" width="32.2959" height="37.7754" filterUnits="userSpaceOnUse" color-interpolation-filters="sRGB">
<feFlood flood-opacity="0" result="BackgroundImageFix"/>
<feColorMatrix in="SourceAlpha" type="matrix" values="0 0 0 0 0 0 0 0 0 0 0 0 0 0 0 0 0 0 127 0" result="hardAlpha"/>
<feOffset dy="4"/>
<feGaussianBlur stdDeviation="2"/>
<feComposite in2="hardAlpha" operator="out"/>
<feColorMatrix type="matrix" values="0 0 0 0 0 0 0 0 0 0 0 0 0 0 0 0 0 0 0.25 0"/>
<feBlend mode="normal" in2="BackgroundImageFix" result="effect1_dropShadow_1420_1427"/>
<feBlend mode="normal" in="SourceGraphic" in2="effect1_dropShadow_1420_1427" result="shape"/>
<feGaussianBlur stdDeviation="1.5" result="effect2_foregroundBlur_1420_1427"/>
</filter>
<filter id="filter8_df_1420_1427" x="810.875" y="34.6531" width="32.2959" height="37.7754" filterUnits="userSpaceOnUse" color-interpolation-filters="sRGB">
<feFlood flood-opacity="0" result="BackgroundImageFix"/>
<feColorMatrix in="SourceAlpha" type="matrix" values="0 0 0 0 0 0 0 0 0 0 0 0 0 0 0 0 0 0 127 0" result="hardAlpha"/>
<feOffset dy="4"/>
<feGaussianBlur stdDeviation="2"/>
<feComposite in2="hardAlpha" operator="out"/>
<feColorMatrix type="matrix" values="0 0 0 0 0 0 0 0 0 0 0 0 0 0 0 0 0 0 0.25 0"/>
<feBlend mode="normal" in2="BackgroundImageFix" result="effect1_dropShadow_1420_1427"/>
<feBlend mode="normal" in="SourceGraphic" in2="effect1_dropShadow_1420_1427" result="shape"/>
<feGaussianBlur stdDeviation="1.5" result="effect2_foregroundBlur_1420_1427"/>
</filter>
<filter id="filter9_df_1420_1427" x="914.132" y="260.572" width="32.2959" height="37.7754" filterUnits="userSpaceOnUse" color-interpolation-filters="sRGB">
<feFlood flood-opacity="0" result="BackgroundImageFix"/>
<feColorMatrix in="SourceAlpha" type="matrix" values="0 0 0 0 0 0 0 0 0 0 0 0 0 0 0 0 0 0 127 0" result="hardAlpha"/>
<feOffset dy="4"/>
<feGaussianBlur stdDeviation="2"/>
<feComposite in2="hardAlpha" operator="out"/>
<feColorMatrix type="matrix" values="0 0 0 0 0 0 0 0 0 0 0 0 0 0 0 0 0 0 0.25 0"/>
<feBlend mode="normal" in2="BackgroundImageFix" result="effect1_dropShadow_1420_1427"/>
<feBlend mode="normal" in="SourceGraphic" in2="effect1_dropShadow_1420_1427" result="shape"/>
<feGaussianBlur stdDeviation="1.5" result="effect2_foregroundBlur_1420_1427"/>
</filter>
<filter id="filter10_f_1420_1427" x="978.909" y="501.551" width="30.2959" height="32.7754" filterUnits="userSpaceOnUse" color-interpolation-filters="sRGB">
<feFlood flood-opacity="0" result="BackgroundImageFix"/>
<feBlend mode="normal" in="SourceGraphic" in2="BackgroundImageFix" result="shape"/>
<feGaussianBlur stdDeviation="1.5" result="effect1_foregroundBlur_1420_1427"/>
</filter>
<filter id="filter11_df_1420_1427" x="666.618" y="441.306" width="32.2959" height="37.7754" filterUnits="userSpaceOnUse" color-interpolation-filters="sRGB">
<feFlood flood-opacity="0" result="BackgroundImageFix"/>
<feColorMatrix in="SourceAlpha" type="matrix" values="0 0 0 0 0 0 0 0 0 0 0 0 0 0 0 0 0 0 127 0" result="hardAlpha"/>
<feOffset dy="4"/>
<feGaussianBlur stdDeviation="2"/>
<feComposite in2="hardAlpha" operator="out"/>
<feColorMatrix type="matrix" values="0 0 0 0 0 0 0 0 0 0 0 0 0 0 0 0 0 0 0.25 0"/>
<feBlend mode="normal" in2="BackgroundImageFix" result="effect1_dropShadow_1420_1427"/>
<feBlend mode="normal" in="SourceGraphic" in2="effect1_dropShadow_1420_1427" result="shape"/>
<feGaussianBlur stdDeviation="1.5" result="effect2_foregroundBlur_1420_1427"/>
</filter>
<filter id="filter12_df_1420_1427" x="810.875" y="468.082" width="32.2959" height="37.7754" filterUnits="userSpaceOnUse" color-interpolation-filters="sRGB">
<feFlood flood-opacity="0" result="BackgroundImageFix"/>
<feColorMatrix in="SourceAlpha" type="matrix" values="0 0 0 0 0 0 0 0 0 0 0 0 0 0 0 0 0 0 127 0" result="hardAlpha"/>
<feOffset dy="4"/>
<feGaussianBlur stdDeviation="2"/>
<feComposite in2="hardAlpha" operator="out"/>
<feColorMatrix type="matrix" values="0 0 0 0 0 0 0 0 0 0 0 0 0 0 0 0 0 0 0.25 0"/>
<feBlend mode="normal" in2="BackgroundImageFix" result="effect1_dropShadow_1420_1427"/>
<feBlend mode="normal" in="SourceGraphic" in2="effect1_dropShadow_1420_1427" result="shape"/>
<feGaussianBlur stdDeviation="1.5" result="effect2_foregroundBlur_1420_1427"/>
</filter>
<filter id="filter13_df_1420_1427" x="321.161" y="346.755" width="32.2959" height="37.7754" filterUnits="userSpaceOnUse" color-interpolation-filters="sRGB">
<feFlood flood-opacity="0" result="BackgroundImageFix"/>
<feColorMatrix in="SourceAlpha" type="matrix" values="0 0 0 0 0 0 0 0 0 0 0 0 0 0 0 0 0 0 127 0" result="hardAlpha"/>
<feOffset dy="4"/>
<feGaussianBlur stdDeviation="2"/>
<feComposite in2="hardAlpha" operator="out"/>
<feColorMatrix type="matrix" values="0 0 0 0 0 0 0 0 0 0 0 0 0 0 0 0 0 0 0.25 0"/>
<feBlend mode="normal" in2="BackgroundImageFix" result="effect1_dropShadow_1420_1427"/>
<feBlend mode="normal" in="SourceGraphic" in2="effect1_dropShadow_1420_1427" result="shape"/>
<feGaussianBlur stdDeviation="1.5" result="effect2_foregroundBlur_1420_1427"/>
</filter>
<filter id="filter14_df_1420_1427" x="422.9" y="462.225" width="32.2959" height="37.7754" filterUnits="userSpaceOnUse" color-interpolation-filters="sRGB">
<feFlood flood-opacity="0" result="BackgroundImageFix"/>
<feColorMatrix in="SourceAlpha" type="matrix" values="0 0 0 0 0 0 0 0 0 0 0 0 0 0 0 0 0 0 127 0" result="hardAlpha"/>
<feOffset dy="4"/>
<feGaussianBlur stdDeviation="2"/>
<feComposite in2="hardAlpha" operator="out"/>
<feColorMatrix type="matrix" values="0 0 0 0 0 0 0 0 0 0 0 0 0 0 0 0 0 0 0.25 0"/>
<feBlend mode="normal" in2="BackgroundImageFix" result="effect1_dropShadow_1420_1427"/>
<feBlend mode="normal" in="SourceGraphic" in2="effect1_dropShadow_1420_1427" result="shape"/>
<feGaussianBlur stdDeviation="1.5" result="effect2_foregroundBlur_1420_1427"/>
</filter>
<filter id="filter15_df_1420_1427" x="465.418" y="174.388" width="32.2959" height="37.7754" filterUnits="userSpaceOnUse" color-interpolation-filters="sRGB">
<feFlood flood-opacity="0" result="BackgroundImageFix"/>
<feColorMatrix in="SourceAlpha" type="matrix" values="0 0 0 0 0 0 0 0 0 0 0 0 0 0 0 0 0 0 127 0" result="hardAlpha"/>
<feOffset dy="4"/>
<feGaussianBlur stdDeviation="2"/>
<feComposite in2="hardAlpha" operator="out"/>
<feColorMatrix type="matrix" values="0 0 0 0 0 0 0 0 0 0 0 0 0 0 0 0 0 0 0.25 0"/>
<feBlend mode="normal" in2="BackgroundImageFix" result="effect1_dropShadow_1420_1427"/>
<feBlend mode="normal" in="SourceGraphic" in2="effect1_dropShadow_1420_1427" result="shape"/>
<feGaussianBlur stdDeviation="1.5" result="effect2_foregroundBlur_1420_1427"/>
</filter>
<filter id="filter16_df_1420_1427" x="568.675" y="400.306" width="32.2959" height="37.7754" filterUnits="userSpaceOnUse" color-interpolation-filters="sRGB">
<feFlood flood-opacity="0" result="BackgroundImageFix"/>
<feColorMatrix in="SourceAlpha" type="matrix" values="0 0 0 0 0 0 0 0 0 0 0 0 0 0 0 0 0 0 127 0" result="hardAlpha"/>
<feOffset dy="4"/>
<feGaussianBlur stdDeviation="2"/>
<feComposite in2="hardAlpha" operator="out"/>
<feColorMatrix type="matrix" values="0 0 0 0 0 0 0 0 0 0 0 0 0 0 0 0 0 0 0.25 0"/>
<feBlend mode="normal" in2="BackgroundImageFix" result="effect1_dropShadow_1420_1427"/>
<feBlend mode="normal" in="SourceGraphic" in2="effect1_dropShadow_1420_1427" result="shape"/>
<feGaussianBlur stdDeviation="1.5" result="effect2_foregroundBlur_1420_1427"/>
</filter>
<filter id="filter17_df_1420_1427" x="632.452" y="641.286" width="32.2959" height="37.7755" filterUnits="userSpaceOnUse" color-interpolation-filters="sRGB">
<feFlood flood-opacity="0" result="BackgroundImageFix"/>
<feColorMatrix in="SourceAlpha" type="matrix" values="0 0 0 0 0 0 0 0 0 0 0 0 0 0 0 0 0 0 127 0" result="hardAlpha"/>
<feOffset dy="4"/>
<feGaussianBlur stdDeviation="2"/>
<feComposite in2="hardAlpha" operator="out"/>
<feColorMatrix type="matrix" values="0 0 0 0 0 0 0 0 0 0 0 0 0 0 0 0 0 0 0.25 0"/>
<feBlend mode="normal" in2="BackgroundImageFix" result="effect1_dropShadow_1420_1427"/>
<feBlend mode="normal" in="SourceGraphic" in2="effect1_dropShadow_1420_1427" result="shape"/>
<feGaussianBlur stdDeviation="1.5" result="effect2_foregroundBlur_1420_1427"/>
</filter>
<filter id="filter18_df_1420_1427" x="321.161" y="581.041" width="32.2959" height="37.7755" filterUnits="userSpaceOnUse" color-interpolation-filters="sRGB">
<feFlood flood-opacity="0" result="BackgroundImageFix"/>
<feColorMatrix in="SourceAlpha" type="matrix" values="0 0 0 0 0 0 0 0 0 0 0 0 0 0 0 0 0 0 127 0" result="hardAlpha"/>
<feOffset dy="4"/>
<feGaussianBlur stdDeviation="2"/>
<feComposite in2="hardAlpha" operator="out"/>
<feColorMatrix type="matrix" values="0 0 0 0 0 0 0 0 0 0 0 0 0 0 0 0 0 0 0.25 0"/>
<feBlend mode="normal" in2="BackgroundImageFix" result="effect1_dropShadow_1420_1427"/>
<feBlend mode="normal" in="SourceGraphic" in2="effect1_dropShadow_1420_1427" result="shape"/>
<feGaussianBlur stdDeviation="1.5" result="effect2_foregroundBlur_1420_1427"/>
</filter>
<filter id="filter19_df_1420_1427" x="465.418" y="607.816" width="32.2959" height="37.7755" filterUnits="userSpaceOnUse" color-interpolation-filters="sRGB">
<feFlood flood-opacity="0" result="BackgroundImageFix"/>
<feColorMatrix in="SourceAlpha" type="matrix" values="0 0 0 0 0 0 0 0 0 0 0 0 0 0 0 0 0 0 127 0" result="hardAlpha"/>
<feOffset dy="4"/>
<feGaussianBlur stdDeviation="2"/>
<feComposite in2="hardAlpha" operator="out"/>
<feColorMatrix type="matrix" values="0 0 0 0 0 0 0 0 0 0 0 0 0 0 0 0 0 0 0.25 0"/>
<feBlend mode="normal" in2="BackgroundImageFix" result="effect1_dropShadow_1420_1427"/>
<feBlend mode="normal" in="SourceGraphic" in2="effect1_dropShadow_1420_1427" result="shape"/>
<feGaussianBlur stdDeviation="1.5" result="effect2_foregroundBlur_1420_1427"/>
</filter>
<filter id="filter20_df_1420_1427" x="8.35156" y="925.776" width="32.2959" height="37.7755" filterUnits="userSpaceOnUse" color-interpolation-filters="sRGB">
<feFlood flood-opacity="0" result="BackgroundImageFix"/>
<feColorMatrix in="SourceAlpha" type="matrix" values="0 0 0 0 0 0 0 0 0 0 0 0 0 0 0 0 0 0 127 0" result="hardAlpha"/>
<feOffset dy="4"/>
<feGaussianBlur stdDeviation="2"/>
<feComposite in2="hardAlpha" operator="out"/>
<feColorMatrix type="matrix" values="0 0 0 0 0 0 0 0 0 0 0 0 0 0 0 0 0 0 0.25 0"/>
<feBlend mode="normal" in2="BackgroundImageFix" result="effect1_dropShadow_1420_1427"/>
<feBlend mode="normal" in="SourceGraphic" in2="effect1_dropShadow_1420_1427" result="shape"/>
<feGaussianBlur stdDeviation="1.5" result="effect2_foregroundBlur_1420_1427"/>
</filter>
<filter id="filter21_df_1420_1427" x="110.091" y="1041.24" width="32.2959" height="37.7755" filterUnits="userSpaceOnUse" color-interpolation-filters="sRGB">
<feFlood flood-opacity="0" result="BackgroundImageFix"/>
<feColorMatrix in="SourceAlpha" type="matrix" values="0 0 0 0 0 0 0 0 0 0 0 0 0 0 0 0 0 0 127 0" result="hardAlpha"/>
<feOffset dy="4"/>
<feGaussianBlur stdDeviation="2"/>
<feComposite in2="hardAlpha" operator="out"/>
<feColorMatrix type="matrix" values="0 0 0 0 0 0 0 0 0 0 0 0 0 0 0 0 0 0 0.25 0"/>
<feBlend mode="normal" in2="BackgroundImageFix" result="effect1_dropShadow_1420_1427"/>
<feBlend mode="normal" in="SourceGraphic" in2="effect1_dropShadow_1420_1427" result="shape"/>
<feGaussianBlur stdDeviation="1.5" result="effect2_foregroundBlur_1420_1427"/>
</filter>
<filter id="filter22_df_1420_1427" x="152.608" y="753.408" width="32.2959" height="37.7755" filterUnits="userSpaceOnUse" color-interpolation-filters="sRGB">
<feFlood flood-opacity="0" result="BackgroundImageFix"/>
<feColorMatrix in="SourceAlpha" type="matrix" values="0 0 0 0 0 0 0 0 0 0 0 0 0 0 0 0 0 0 127 0" result="hardAlpha"/>
<feOffset dy="4"/>
<feGaussianBlur stdDeviation="2"/>
<feComposite in2="hardAlpha" operator="out"/>
<feColorMatrix type="matrix" values="0 0 0 0 0 0 0 0 0 0 0 0 0 0 0 0 0 0 0.25 0"/>
<feBlend mode="normal" in2="BackgroundImageFix" result="effect1_dropShadow_1420_1427"/>
<feBlend mode="normal" in="SourceGraphic" in2="effect1_dropShadow_1420_1427" result="shape"/>
<feGaussianBlur stdDeviation="1.5" result="effect2_foregroundBlur_1420_1427"/>
</filter>
<filter id="filter23_df_1420_1427" x="255.866" y="979.327" width="32.2959" height="37.7755" filterUnits="userSpaceOnUse" color-interpolation-filters="sRGB">
<feFlood flood-opacity="0" result="BackgroundImageFix"/>
<feColorMatrix in="SourceAlpha" type="matrix" values="0 0 0 0 0 0 0 0 0 0 0 0 0 0 0 0 0 0 127 0" result="hardAlpha"/>
<feOffset dy="4"/>
<feGaussianBlur stdDeviation="2"/>
<feComposite in2="hardAlpha" operator="out"/>
<feColorMatrix type="matrix" values="0 0 0 0 0 0 0 0 0 0 0 0 0 0 0 0 0 0 0.25 0"/>
<feBlend mode="normal" in2="BackgroundImageFix" result="effect1_dropShadow_1420_1427"/>
<feBlend mode="normal" in="SourceGraphic" in2="effect1_dropShadow_1420_1427" result="shape"/>
<feGaussianBlur stdDeviation="1.5" result="effect2_foregroundBlur_1420_1427"/>
</filter>
<filter id="filter24_df_1420_1427" x="319.643" y="1220.31" width="32.2959" height="37.7755" filterUnits="userSpaceOnUse" color-interpolation-filters="sRGB">
<feFlood flood-opacity="0" result="BackgroundImageFix"/>
<feColorMatrix in="SourceAlpha" type="matrix" values="0 0 0 0 0 0 0 0 0 0 0 0 0 0 0 0 0 0 127 0" result="hardAlpha"/>
<feOffset dy="4"/>
<feGaussianBlur stdDeviation="2"/>
<feComposite in2="hardAlpha" operator="out"/>
<feColorMatrix type="matrix" values="0 0 0 0 0 0 0 0 0 0 0 0 0 0 0 0 0 0 0.25 0"/>
<feBlend mode="normal" in2="BackgroundImageFix" result="effect1_dropShadow_1420_1427"/>
<feBlend mode="normal" in="SourceGraphic" in2="effect1_dropShadow_1420_1427" result="shape"/>
<feGaussianBlur stdDeviation="1.5" result="effect2_foregroundBlur_1420_1427"/>
</filter>
<filter id="filter25_df_1420_1427" x="8.35156" y="1160.06" width="32.2959" height="37.7755" filterUnits="userSpaceOnUse" color-interpolation-filters="sRGB">
<feFlood flood-opacity="0" result="BackgroundImageFix"/>
<feColorMatrix in="SourceAlpha" type="matrix" values="0 0 0 0 0 0 0 0 0 0 0 0 0 0 0 0 0 0 127 0" result="hardAlpha"/>
<feOffset dy="4"/>
<feGaussianBlur stdDeviation="2"/>
<feComposite in2="hardAlpha" operator="out"/>
<feColorMatrix type="matrix" values="0 0 0 0 0 0 0 0 0 0 0 0 0 0 0 0 0 0 0.25 0"/>
<feBlend mode="normal" in2="BackgroundImageFix" result="effect1_dropShadow_1420_1427"/>
<feBlend mode="normal" in="SourceGraphic" in2="effect1_dropShadow_1420_1427" result="shape"/>
<feGaussianBlur stdDeviation="1.5" result="effect2_foregroundBlur_1420_1427"/>
</filter>
<filter id="filter26_df_1420_1427" x="164.756" y="1288.92" width="32.2959" height="37.7755" filterUnits="userSpaceOnUse" color-interpolation-filters="sRGB">
<feFlood flood-opacity="0" result="BackgroundImageFix"/>
<feColorMatrix in="SourceAlpha" type="matrix" values="0 0 0 0 0 0 0 0 0 0 0 0 0 0 0 0 0 0 127 0" result="hardAlpha"/>
<feOffset dy="4"/>
<feGaussianBlur stdDeviation="2"/>
<feComposite in2="hardAlpha" operator="out"/>
<feColorMatrix type="matrix" values="0 0 0 0 0 0 0 0 0 0 0 0 0 0 0 0 0 0 0.25 0"/>
<feBlend mode="normal" in2="BackgroundImageFix" result="effect1_dropShadow_1420_1427"/>
<feBlend mode="normal" in="SourceGraphic" in2="effect1_dropShadow_1420_1427" result="shape"/>
<feGaussianBlur stdDeviation="1.5" result="effect2_foregroundBlur_1420_1427"/>
</filter>
<filter id="filter27_df_1420_1427" x="152.608" y="1186.84" width="32.2959" height="37.7755" filterUnits="userSpaceOnUse" color-interpolation-filters="sRGB">
<feFlood flood-opacity="0" result="BackgroundImageFix"/>
<feColorMatrix in="SourceAlpha" type="matrix" values="0 0 0 0 0 0 0 0 0 0 0 0 0 0 0 0 0 0 127 0" result="hardAlpha"/>
<feOffset dy="4"/>
<feGaussianBlur stdDeviation="2"/>
<feComposite in2="hardAlpha" operator="out"/>
<feColorMatrix type="matrix" values="0 0 0 0 0 0 0 0 0 0 0 0 0 0 0 0 0 0 0.25 0"/>
<feBlend mode="normal" in2="BackgroundImageFix" result="effect1_dropShadow_1420_1427"/>
<feBlend mode="normal" in="SourceGraphic" in2="effect1_dropShadow_1420_1427" result="shape"/>
<feGaussianBlur stdDeviation="1.5" result="effect2_foregroundBlur_1420_1427"/>
</filter>
<radialGradient id="paint0_radial_1420_1427" cx="0" cy="0" r="1" gradientUnits="userSpaceOnUse" gradientTransform="translate(537.553 635.353) rotate(90) scale(630.199 484.447)">
<stop stop-color="#315CAC"/>
<stop offset="1" stop-color="#3178FF" stop-opacity="0.17"/>
</radialGradient>
</defs>
</svg>
