<svg width="534" height="964" viewBox="0 0 534 964" fill="none" xmlns="http://www.w3.org/2000/svg">
<path d="M103.317 41.1223C103.317 41.1223 205.768 -1.57232 263.317 1.1224C342.209 4.81648 453.913 18.4915 461.317 97.1223C469.912 188.408 276.53 105.921 221.317 179.122C188.15 223.096 -17.2978 333.654 2.31705 385.122C27.4198 450.99 277.846 357 340 357C380 357 529.327 420.653 533 466C539.268 543.385 226.954 613.71 208 689C196.836 733.346 241.363 703.007 263.317 743.122C310.091 828.588 440.549 683.133 517.317 743.122C562.121 778.134 425.266 784.205 428 841C431.93 922.632 351.317 963 351.317 963" stroke="white" stroke-dasharray="2 2"/>
</svg>
