<svg width="27" height="27" viewBox="0 0 27 27" fill="none" xmlns="http://www.w3.org/2000/svg">
<path d="M16.6838 12.7013L11.9138 7.93125C11.8092 7.82581 11.6848 7.74212 11.5477 7.685C11.4106 7.62789 11.2635 7.59848 11.115 7.59848C10.9665 7.59848 10.8195 7.62789 10.6824 7.685C10.5453 7.74212 10.4209 7.82581 10.3163 7.93125C10.1067 8.14204 9.98914 8.42717 9.98914 8.72438C9.98914 9.02159 10.1067 9.30672 10.3163 9.5175L14.2988 13.5L10.3163 17.4825C10.1067 17.6933 9.98914 17.9784 9.98914 18.2756C9.98914 18.5728 10.1067 18.858 10.3163 19.0688C10.4214 19.173 10.5461 19.2555 10.6831 19.3115C10.8202 19.3675 10.967 19.3959 11.115 19.395C11.2631 19.3959 11.4099 19.3675 11.5469 19.3115C11.684 19.2555 11.8087 19.173 11.9138 19.0688L16.6838 14.2988C16.7892 14.1942 16.8729 14.0697 16.93 13.9327C16.9871 13.7956 17.0166 13.6485 17.0166 13.5C17.0166 13.3515 16.9871 13.2044 16.93 13.0674C16.8729 12.9303 16.7892 12.8058 16.6838 12.7013Z" fill="white"/>
</svg>
