<svg width="29" height="29" viewBox="0 0 29 29" fill="none" xmlns="http://www.w3.org/2000/svg">
<path d="M24.8581 11.1884L21.8984 14.1932L24.8581 17.1981L28 14.1932L24.8581 11.1884Z" fill="#FFC843" stroke="#FFC843" stroke-width="0.5"/>
<path d="M14.2502 11.051L11.2905 14.1924L14.2502 17.0607L17.4831 14.1924L14.2502 11.051Z" fill="#FFC843" stroke="#FFC843" stroke-width="0.5"/>
<path d="M9.01304 16.4238L6.09888 19.4286L14.4316 27.7602L22.7643 19.4286L19.6224 16.4238L14.4316 21.6595L9.01304 16.4238Z" fill="#FFC843" stroke="#FFC843" stroke-width="0.5"/>
<path d="M9.01304 11.9619L6.14441 8.86603L14.3405 0.625488L22.6732 8.86603L19.7135 11.9619L14.3405 6.72622L9.01304 11.9619Z" fill="#FFC843" stroke="#FFC843" stroke-width="0.5"/>
<path d="M3.91417 11.097C2.98831 12.0379 1.10928 13.9561 1 14.1018L3.91417 17.2432L6.7828 14.1018L3.91417 11.097Z" fill="#FFC843" stroke="#FFC843" stroke-width="0.5"/>
</svg>
