<svg width="37" height="37" viewBox="0 0 37 37" fill="none" xmlns="http://www.w3.org/2000/svg">
<path d="M31.0121 14.8457L27.4131 18.5001L31.0121 22.1544L34.8326 18.5001L31.0121 14.8457Z" fill="#FFC843" stroke="#FFC843" stroke-width="2"/>
<path d="M18.1122 14.6788L14.5132 18.4993L18.1122 21.9875L22.0434 18.4993L18.1122 14.6788Z" fill="#FFC843" stroke="#FFC843" stroke-width="2"/>
<path d="M11.7438 21.2129L8.2002 24.8673L18.3328 34.9998L28.4653 24.8673L24.6449 21.2129L18.3328 27.5804L11.7438 21.2129Z" fill="#FFC843" stroke="#FFC843" stroke-width="2"/>
<path d="M11.7441 15.7869L8.25586 12.0218L18.2223 2L28.3549 12.0218L24.7559 15.7869L18.2223 9.41948L11.7441 15.7869Z" fill="#FFC843" stroke="#FFC843" stroke-width="2"/>
<path d="M5.54363 14.7349C4.41779 15.8792 2.13289 18.2121 2 18.3892L5.54363 22.2097L9.03189 18.3892L5.54363 14.7349Z" fill="#FFC843" stroke="#FFC843" stroke-width="2"/>
</svg>
