<svg width="12" height="12" viewBox="0 0 12 12" fill="none" xmlns="http://www.w3.org/2000/svg">
<path fill-rule="evenodd" clip-rule="evenodd" d="M8.18182 6C8.18182 7.20498 7.20498 8.18182 6 8.18182C4.79502 8.18182 3.81818 7.20498 3.81818 6C3.81818 4.79501 4.79502 3.81818 6 3.81818C7.20498 3.81818 8.18182 4.79501 8.18182 6ZM7.36364 6C7.36364 6.75312 6.75312 7.36364 6 7.36364C5.24688 7.36364 4.63636 6.75312 4.63636 6C4.63636 5.24688 5.24688 4.63636 6 4.63636C6.75312 4.63636 7.36364 5.24688 7.36364 6Z" fill="white"/>
<path fill-rule="evenodd" clip-rule="evenodd" d="M6 0C5.85391 0 5.70897 0.00522875 5.56537 0.0155186C5.14889 0.0453618 4.83145 0.351667 4.74046 0.726425L4.54844 1.51729C4.53808 1.55997 4.4996 1.61121 4.42606 1.63775C4.29047 1.68668 4.15783 1.74174 4.02848 1.80259C3.95782 1.83583 3.89441 1.82684 3.85688 1.80398L3.16181 1.38049C2.83263 1.17993 2.39183 1.18768 2.07622 1.46072C1.85653 1.65078 1.65078 1.85653 1.46072 2.07622C1.18768 2.39183 1.17993 2.83263 1.38049 3.16181L1.80398 3.85688C1.82684 3.89441 1.83583 3.95782 1.80259 4.02848C1.74174 4.15783 1.68668 4.29047 1.63775 4.42606C1.61121 4.4996 1.55997 4.53808 1.51729 4.54844L0.726425 4.74046C0.351668 4.83145 0.0453618 5.14888 0.0155186 5.56537C0.00522875 5.70897 0 5.85391 0 6C0 6.14609 0.00522875 6.29103 0.0155186 6.43463C0.0453618 6.85111 0.351667 7.16855 0.726425 7.25954L1.51729 7.45156C1.55997 7.46192 1.61121 7.5004 1.63775 7.57394C1.68668 7.70953 1.74174 7.84217 1.80259 7.97152C1.83583 8.04218 1.82684 8.10559 1.80398 8.14312L1.38049 8.83819C1.17993 9.16737 1.18768 9.60817 1.46072 9.92378C1.65078 10.1435 1.85653 10.3492 2.07622 10.5393C2.39184 10.8123 2.83263 10.8201 3.16181 10.6195L3.85688 10.196C3.89441 10.1732 3.95782 10.1642 4.02848 10.1974C4.15783 10.2583 4.29047 10.3133 4.42606 10.3623C4.4996 10.3888 4.53808 10.44 4.54844 10.4827L4.74046 11.2736C4.83145 11.6483 5.14889 11.9546 5.56537 11.9845C5.70897 11.9948 5.85391 12 6 12C6.14609 12 6.29103 11.9948 6.43463 11.9845C6.85111 11.9546 7.16855 11.6483 7.25954 11.2736L7.45156 10.4827C7.46192 10.44 7.5004 10.3888 7.57394 10.3623C7.70953 10.3133 7.84217 10.2583 7.97152 10.1974C8.04218 10.1642 8.10559 10.1732 8.14312 10.196L8.83819 10.6195C9.16737 10.8201 9.60817 10.8123 9.92378 10.5393C10.1435 10.3492 10.3492 10.1435 10.5393 9.92378C10.8123 9.60817 10.8201 9.16737 10.6195 8.83819L10.196 8.14312C10.1732 8.10559 10.1642 8.04218 10.1974 7.97152C10.2583 7.84217 10.3133 7.70953 10.3623 7.57394C10.3888 7.5004 10.44 7.46192 10.4827 7.45156L11.2736 7.25954C11.6483 7.16855 11.9546 6.85111 11.9845 6.43463C11.9948 6.29103 12 6.14609 12 6C12 5.85391 11.9948 5.70897 11.9845 5.56537C11.9546 5.14889 11.6483 4.83145 11.2736 4.74046L10.4827 4.54844C10.44 4.53808 10.3888 4.4996 10.3623 4.42606C10.3133 4.29047 10.2583 4.15783 10.1974 4.02848C10.1642 3.95782 10.1732 3.89441 10.196 3.85688L10.6195 3.16181C10.8201 2.83263 10.8123 2.39183 10.5393 2.07622C10.3492 1.85653 10.1435 1.65078 9.92378 1.46072C9.60817 1.18768 9.16737 1.17993 8.83819 1.38049L8.14312 1.80398C8.10559 1.82684 8.04218 1.83583 7.97152 1.80259C7.84217 1.74174 7.70953 1.68668 7.57394 1.63775C7.5004 1.61121 7.46192 1.55997 7.45156 1.51729L7.25954 0.726425C7.16855 0.351667 6.85111 0.0453618 6.43463 0.0155186C6.29103 0.00522875 6.14609 0 6 0ZM5.62385 0.831608C5.74801 0.822711 5.87344 0.818182 6 0.818182C6.12656 0.818182 6.25199 0.822711 6.37615 0.831608C6.40644 0.833778 6.44976 0.858956 6.46446 0.919471L6.65648 1.71034C6.7395 2.05228 6.99746 2.29954 7.29622 2.40735C7.40771 2.44759 7.5168 2.49287 7.62323 2.54294C7.91083 2.67824 8.26824 2.68582 8.56882 2.50269L9.26389 2.0792C9.31705 2.04681 9.3655 2.05961 9.38847 2.07949C9.57838 2.24377 9.75623 2.42163 9.92051 2.61153C9.94039 2.6345 9.95319 2.68295 9.9208 2.7361L9.49731 3.43118C9.31418 3.73176 9.32176 4.08917 9.45706 4.37677C9.50713 4.4832 9.55241 4.59229 9.59265 4.70378C9.70046 5.00254 9.94772 5.2605 10.2897 5.34352L11.0805 5.53554C11.141 5.55024 11.1662 5.59356 11.1684 5.62385C11.1773 5.74801 11.1818 5.87344 11.1818 6C11.1818 6.12656 11.1773 6.25199 11.1684 6.37615C11.1662 6.40644 11.141 6.44976 11.0805 6.46446L10.2897 6.65648C9.94772 6.7395 9.70046 6.99746 9.59265 7.29622C9.55241 7.40771 9.50713 7.5168 9.45706 7.62323C9.32176 7.91083 9.31418 8.26824 9.49731 8.56882L9.9208 9.26389C9.95319 9.31705 9.94039 9.3655 9.92051 9.38847C9.75623 9.57837 9.57838 9.75623 9.38847 9.92051C9.3655 9.94039 9.31705 9.95319 9.2639 9.9208L8.56882 9.49731C8.26824 9.31418 7.91083 9.32176 7.62323 9.45706C7.5168 9.50713 7.40771 9.55241 7.29622 9.59265C6.99746 9.70046 6.7395 9.94772 6.65648 10.2897L6.46446 11.0805C6.44976 11.141 6.40644 11.1662 6.37615 11.1684C6.25199 11.1773 6.12656 11.1818 6 11.1818C5.87344 11.1818 5.74801 11.1773 5.62385 11.1684C5.59356 11.1662 5.55024 11.141 5.53554 11.0805L5.34352 10.2897C5.2605 9.94772 5.00254 9.70046 4.70378 9.59265C4.59229 9.55241 4.4832 9.50713 4.37677 9.45706C4.08917 9.32176 3.73176 9.31418 3.43118 9.49731L2.73611 9.9208C2.68295 9.95319 2.6345 9.94039 2.61153 9.92051C2.42163 9.75623 2.24377 9.57837 2.07949 9.38847C2.05961 9.3655 2.04681 9.31705 2.0792 9.2639L2.50269 8.56882C2.68582 8.26824 2.67824 7.91083 2.54294 7.62323C2.49287 7.5168 2.44759 7.40771 2.40735 7.29622C2.29954 6.99746 2.05228 6.7395 1.71034 6.65648L0.919471 6.46446C0.858956 6.44976 0.833778 6.40644 0.831608 6.37615C0.822711 6.25199 0.818182 6.12656 0.818182 6C0.818182 5.87344 0.822711 5.74801 0.831608 5.62385C0.833778 5.59356 0.858955 5.55024 0.919471 5.53554L1.71034 5.34352C2.05228 5.2605 2.29954 5.00253 2.40735 4.70378C2.44759 4.59229 2.49287 4.4832 2.54294 4.37677C2.67824 4.08917 2.68582 3.73176 2.50269 3.43118L2.0792 2.73611C2.04681 2.68295 2.05961 2.6345 2.07949 2.61153C2.24377 2.42162 2.42162 2.24377 2.61153 2.07949C2.6345 2.05961 2.68295 2.04681 2.73611 2.0792L3.43118 2.50269C3.73176 2.68582 4.08917 2.67824 4.37677 2.54294C4.4832 2.49287 4.59229 2.44759 4.70378 2.40735C5.00254 2.29954 5.2605 2.05228 5.34352 1.71034L5.53554 0.919471C5.55024 0.858956 5.59356 0.833778 5.62385 0.831608Z" fill="white"/>
</svg>
