<svg width="23" height="23" viewBox="0 0 23 23" fill="none" xmlns="http://www.w3.org/2000/svg">
<path d="M15.3333 20.125V18.2083C15.3333 17.1917 14.9295 16.2166 14.2106 15.4978C13.4917 14.7789 12.5167 14.375 11.5 14.375H4.79168C3.77501 14.375 2.79999 14.7789 2.0811 15.4978C1.36221 16.2166 0.958344 17.1917 0.958344 18.2083V20.125" stroke="white" stroke-linecap="round" stroke-linejoin="round"/>
<path d="M19.1667 7.66663V13.4166" stroke="white" stroke-linecap="round" stroke-linejoin="round"/>
<path d="M22.0417 10.5416H16.2917" stroke="white" stroke-linecap="round" stroke-linejoin="round"/>
<path d="M8.14583 10.5417C10.2629 10.5417 11.9792 8.82543 11.9792 6.70833C11.9792 4.59124 10.2629 2.875 8.14583 2.875C6.02874 2.875 4.3125 4.59124 4.3125 6.70833C4.3125 8.82543 6.02874 10.5417 8.14583 10.5417Z" stroke="white" stroke-linecap="round" stroke-linejoin="round"/>
</svg>
