<svg width="23" height="23" viewBox="0 0 23 23" fill="none" xmlns="http://www.w3.org/2000/svg">
<path d="M21.0833 20.125V18.2084C21.0827 17.359 20.8 16.534 20.2796 15.8627C19.7593 15.1914 19.0307 14.712 18.2083 14.4996" stroke="white" stroke-linecap="round" stroke-linejoin="round"/>
<path d="M16.2916 20.125V18.2083C16.2916 17.1917 15.8878 16.2166 15.1689 15.4978C14.45 14.7789 13.475 14.375 12.4583 14.375H4.79165C3.77498 14.375 2.79996 14.7789 2.08107 15.4978C1.36218 16.2166 0.958313 17.1917 0.958313 18.2083V20.125" stroke="white" stroke-linecap="round" stroke-linejoin="round"/>
<path d="M14.375 2.99963C15.1996 3.21076 15.9304 3.69031 16.4523 4.36268C16.9742 5.03506 17.2575 5.86201 17.2575 6.71317C17.2575 7.56434 16.9742 8.39129 16.4523 9.06367C15.9304 9.73604 15.1996 10.2156 14.375 10.4267" stroke="white" stroke-linecap="round" stroke-linejoin="round"/>
<path d="M8.62502 10.5417C10.7421 10.5417 12.4584 8.82543 12.4584 6.70833C12.4584 4.59124 10.7421 2.875 8.62502 2.875C6.50793 2.875 4.79169 4.59124 4.79169 6.70833C4.79169 8.82543 6.50793 10.5417 8.62502 10.5417Z" stroke="white" stroke-linecap="round" stroke-linejoin="round"/>
</svg>
