<svg width="36" height="36" viewBox="0 0 36 36" fill="none" xmlns="http://www.w3.org/2000/svg">
<path fill-rule="evenodd" clip-rule="evenodd" d="M27.7247 29.6853L27.7257 29.6827L27.7518 29.6175L32.25 6.93889V6.86523C32.25 6.30017 32.0412 5.80688 31.5869 5.51099C31.1893 5.252 30.7321 5.23356 30.4116 5.25789C30.0725 5.28362 29.7529 5.36824 29.5316 5.43868C29.4177 5.47492 29.3224 5.50984 29.2543 5.53625C29.2201 5.54951 29.1923 5.56075 29.1722 5.56913L29.1524 5.57747L4.07265 15.4159L4.06575 15.4183C4.0522 15.4233 4.03429 15.43 4.01265 15.4384C3.96952 15.4552 3.91081 15.4792 3.84184 15.5105C3.70642 15.5718 3.51932 15.6665 3.32956 15.7965C3.00728 16.0172 2.39361 16.5397 2.49724 17.368C2.58307 18.0541 3.05602 18.4899 3.37487 18.7155C3.5458 18.8364 3.70932 18.9236 3.82906 18.9806C3.88973 19.0095 3.94127 19.0316 3.97965 19.0473C3.99889 19.0551 4.01498 19.0614 4.02743 19.0661L4.04337 19.072L4.05356 19.0758L8.44142 20.553C8.42661 20.8283 8.45391 21.109 8.52692 21.386L10.7248 29.7236C10.9855 30.7122 11.8798 31.4008 12.9021 31.4001C13.8185 31.3994 14.6313 30.845 14.9766 30.0179L18.4081 26.3488L24.3015 30.8671L24.3853 30.9037C24.9208 31.1373 25.4211 31.2114 25.8784 31.1489C26.3352 31.0865 26.6982 30.895 26.9708 30.6768C27.2391 30.4622 27.423 30.2199 27.5386 30.0375C27.5973 29.9449 27.6411 29.8634 27.6715 29.8021C27.6867 29.7714 27.6988 29.7453 27.7078 29.725L27.7191 29.6989L27.7231 29.6892L27.7247 29.6853ZM10.7025 20.8124C10.6526 20.6229 10.731 20.4229 10.8964 20.3178L25.7794 10.8665C25.7794 10.8665 26.6548 10.335 26.6235 10.8665C26.6235 10.8665 26.7798 10.9603 26.3107 11.3979C25.8657 11.8135 15.7032 21.6251 14.6749 22.6179C14.6155 22.6753 14.5801 22.741 14.5592 22.8208L12.9004 29.15L10.7025 20.8124Z" fill="white"/>
</svg>
