<svg width="35" height="29" viewBox="0 0 35 29" fill="none" xmlns="http://www.w3.org/2000/svg">
<path d="M34.9661 3.96714C35.0701 3.82327 34.9165 3.63752 34.7502 3.70151C33.5682 4.1563 32.3329 4.46314 31.0728 4.61436C32.4759 3.78232 33.5585 2.51575 34.1589 1.01623C34.22 0.863475 34.052 0.72706 33.907 0.806526C32.603 1.52139 31.1967 2.03614 29.7358 2.3326C29.6747 2.34501 29.6116 2.32435 29.5687 2.27938C28.4724 1.13109 27.0293 0.366536 25.4561 0.102333C23.8498 -0.16742 22.1988 0.0996733 20.762 0.861723C19.3251 1.62377 18.1837 2.83767 17.5167 4.31305C16.8826 5.71584 16.7115 7.27957 17.0242 8.78134C17.0485 8.89786 16.9566 9.00787 16.837 9.0005C13.9946 8.82526 11.2174 8.07479 8.67659 6.79429C6.1422 5.51705 3.89792 3.7402 2.08044 1.57332C1.99978 1.47715 1.84691 1.4896 1.78814 1.6003C1.2226 2.66558 0.926503 3.85291 0.927307 5.05966C0.925011 6.26086 1.22197 7.44399 1.79176 8.50371C2.36154 9.56342 3.18646 10.4668 4.19307 11.1335C3.12555 11.1047 2.07885 10.8427 1.12693 10.3677C1.00425 10.3065 0.8571 10.3937 0.863481 10.5298C0.937712 12.1137 1.52349 13.7039 2.53743 14.9238C3.61642 16.2221 5.11404 17.1106 6.77697 17.4389C6.13684 17.6323 5.47223 17.7343 4.80316 17.7418C4.439 17.7375 4.07556 17.7109 3.71493 17.6619C3.58122 17.6438 3.47203 17.7698 3.51884 17.8955C4.01484 19.2269 4.89108 20.3887 6.0432 21.2367C7.27496 22.1434 8.76079 22.6464 10.2939 22.6757C7.70503 24.6978 4.50867 25.8014 1.21441 25.8106C0.87591 25.8117 0.537564 25.8008 0.200014 25.7779C0.00979574 25.7651 -0.0776888 26.0166 0.086273 26.1132C3.29599 28.004 6.96464 29.0034 10.7067 28.9989C13.4694 29.0274 16.2102 28.5091 18.769 27.4743C21.3277 26.4396 23.6531 24.9091 25.6093 22.9722C27.5655 21.0354 29.1133 18.731 30.1623 16.1937C31.2112 13.6564 31.7404 10.9371 31.7188 8.19456V7.33989C31.7188 7.28365 31.7456 7.23077 31.7908 7.19688C33.0079 6.28466 34.0782 5.19557 34.9661 3.96714Z" fill="white"/>
</svg>
