<svg width="22" height="25" viewBox="0 0 22 25" fill="none" xmlns="http://www.w3.org/2000/svg">
<path d="M21.099 14.6876V16.4477C21.099 16.9176 20.7471 17.3021 20.2992 17.3192H18.7315C17.8677 17.3192 17.0759 16.6442 17.0039 15.7215C16.9559 15.1832 17.1478 14.6791 17.4838 14.3288C17.7797 14.0041 18.1876 13.8162 18.6355 13.8162H20.2992C20.7471 13.8333 21.099 14.2177 21.099 14.6876Z" stroke="white" stroke-width="1.5" stroke-linecap="round" stroke-linejoin="round"/>
<path d="M17.3543 13.9335C16.9123 14.3944 16.6597 15.0577 16.7228 15.766C16.8176 16.9801 17.8594 17.8682 18.996 17.8682H20.9956V19.206C20.9956 21.5332 19.217 23.4331 17.0386 23.4331H4.95702C2.77855 23.4331 1 21.5332 1 19.206V11.6401C1 9.31301 2.77855 7.41309 4.95702 7.41309H17.0386C19.217 7.41309 20.9956 9.31301 20.9956 11.6401V13.259H18.8697C18.2804 13.259 17.7437 13.5063 17.3543 13.9335Z" stroke="white" stroke-width="1.5" stroke-linecap="round" stroke-linejoin="round"/>
<path d="M1 12.6518V7.51418C1 6.17637 1.76825 4.98466 2.93641 4.51249L11.2925 1.13986C12.5974 0.61148 13.9971 1.64579 13.9971 3.14099V7.41297" stroke="white" stroke-width="1.5" stroke-linecap="round" stroke-linejoin="round"/>
</svg>
